<svg width="260" height="260" viewBox="0 0 260 260" fill="none" xmlns="http://www.w3.org/2000/svg">
<rect width="260" height="260" rx="16" fill="#191B1F"/>
<path d="M35.68 214H114.16C151.12 214 172.72 196 172.72 165.52C172.72 144.88 160.72 130.48 144.4 124.48C155.68 119.68 167.68 107.92 167.68 87.9999C167.68 57.9999 147.52 41.6799 109.84 41.6799H35.68V214ZM74.08 110.8V74.5599H105.76C121.36 74.5599 130 80.5599 130 92.5599C130 104.56 121.36 110.8 105.76 110.8H74.08ZM74.08 142H110.56C125.92 142 134.32 149.92 134.32 161.44C134.32 172.96 125.92 180.88 110.56 180.88H74.08V142Z" fill="white"/>
<path d="M186.259 214H230.419V171.04H186.259V214Z" fill="white"/>
</svg>
